<?xml version="1.0" encoding="UTF-8"?><svg id="a" xmlns="http://www.w3.org/2000/svg" viewBox="0 0 950.58 905.66"><defs><style>.b{fill:#fff;}</style></defs><path class="b" d="M947.7,392.41c-.95-8.9-1.98-17.79-3.35-26.63-3.11-20.07-7.4-39.9-13.13-59.4-10.69-36.43-25.95-70.79-46.45-102.79-19.28-30.09-42.43-56.86-69.03-80.7-30.3-27.15-63.5-50.08-99.74-68.56-30.59-15.6-62.56-27.57-95.78-36.28-19.81-5.19-39.86-9.16-60.12-12.07-9.64-1.38-19.34-2.39-29.05-3.34-12.42-1.21-24.87-1.94-37.32-2.32C471.35-.35,448.98,0,426.62,1.71c-13.4,1.03-26.74,2.39-40.03,4.28-17.89,2.54-35.59,6.05-53.11,10.47-54.02,13.65-104.16,35.92-150,67.67-31.85,22.05-60.68,47.49-85.9,76.94-32.85,38.36-57.25,81.53-73.46,129.33-9.99,29.47-16.55,59.7-20.27,90.59-1.62,13.5-2.88,27.03-3.36,40.6-.86,24.46-.69,48.92,1.38,73.35,1.08,12.75,2.43,25.46,4.33,38.1,2.54,16.91,6,33.66,10.38,50.2,8.63,32.59,20.69,63.82,36.78,93.48,17.65,32.54,39.45,62.03,65.13,88.66,15.79,16.38,32.79,31.43,50.87,45.24,28.22,21.55,58.61,39.43,91.15,53.62,26.74,11.66,54.38,20.6,82.79,27.18,20.89,4.83,42.01,8.33,63.31,10.6,11.6,1.24,23.24,2.17,34.89,2.78,11.18,.59,22.38,.6,33.57,.86v-.24c2.4,0,4.79,.04,7.19,0,11.03-.23,22.06-.24,33.08-1.04,8.13-.59,16.26-1.18,24.37-1.93,12.58-1.17,25.08-2.86,37.54-4.88,20.69-3.35,41.11-7.89,61.23-13.77,43.11-12.59,83.64-30.85,121.09-55.72,33.11-21.99,62.61-48.1,88.56-78.2,19.18-22.25,35.82-46.26,49.77-72.11,13.25-24.56,23.87-50.22,31.94-76.94,6.66-22.07,11.62-44.51,14.93-67.32,1.17-8.07,2.11-16.15,2.99-24.26,1.26-11.61,2.08-23.25,2.43-34.91,.83-27.35,.39-54.67-2.51-81.93Zm-234.22-253.71c1.94-.91,2.33-.81,3.67,.87,4.59,5.75,8.9,11.72,13.01,17.81,15.65,23.17,28.01,48.02,37.88,74.14,9.51,25.18,16.44,51.09,21.75,77.45,.22,1.1,.33,2.21,.5,3.32,.12,1.25-.59,2.11-1.34,2.97-2.32,2.65-4.41,5.48-6.23,8.5-6.09,10.09-9.33,20.97-9.14,32.81,.01,.64,0,1.28,.02,1.92,.13,4.24,.48,4.78-4.34,3.92-17.3-3.11-34.61-6.11-51.92-9.15-.47-.08-.96-.1-1.43-.19-2.07-.4-2.37-.66-2.61-2.76-.68-5.91-2.01-11.65-4.27-17.16-5.93-14.48-15.9-25.32-29.64-32.75-.7-.38-1.41-.75-2.15-1.07-1.5-.64-2.09-1.58-1.91-3.35,.96-9.7,1.75-19.41,2.66-29.12,1.1-11.77,2.3-23.53,3.4-35.31,.8-8.59,1.47-17.2,2.26-25.79,.8-8.75,1.68-17.49,2.5-26.24,.47-5.09,.85-10.19,1.32-15.29,.53-5.73,1.08-11.45,1.7-17.17,.23-2.09,.32-2.13,2.2-2.44,2.36-.39,4.76-.58,7.11-1.04,5.2-1,10.2-2.63,15.01-4.88Zm-27.5,217.8c.12,22.62-18.52,36.42-35.76,36.13-20.27,.24-36-16.94-36.02-35.9-.02-18.12,14.67-35.94,36.03-35.92,18.45,.02,35.63,14.28,35.75,35.69Zm-34.66-276.87c2.28,.43,3.9,2.05,5.7,3.28,12.92,8.86,25.02,18.73,36.12,29.81,.85,.85,2.14,1.46,2.2,3.16-6.43,2.01-12.87,1.75-19.17-.27-13.43-4.3-21.61-13.58-24.94-27.21-.15-.62-.29-1.26-.28-1.89,.03-2.3-1.01-4.66,.36-6.88Zm-127.42,110.89c-.03,20.41-16.25,35.72-35.68,35.79-22.26,.08-36.21-18.66-36.18-35.82,.04-19.79,16.54-36.29,35.97-35.98,16.88-.4,35.93,13.15,35.9,36.01Zm0,265.81c-.06,20.06-15.62,35.67-35.72,35.72-23.26,.06-36.18-19.46-36.14-35.84,.05-19.68,16.42-36.27,36.01-35.91,16.24-.57,35.91,12.66,35.84,36.02ZM351.8,51.68c14.44-5.27,29.23-9.26,44.3-12.23,15.22-3,30.57-4.97,46.05-6.09,9.1-.66,18.2-.77,27.31-.97,.96-.02,1.92,0,2.88,.04,1.09,.05,1.81,.56,1.84,1.73,.04,1.28,.06,2.56,.06,3.84,0,28.47,0,56.93,0,85.4,0,.48,0,.96,0,1.44-.05,3.45-.03,3.53-3.49,4.5-9.08,2.55-17.14,6.95-24.29,13.08-1.74,1.49-1.94,1.5-3.57-.03-6.19-5.79-12.34-11.62-18.5-17.44-20-18.88-40-37.76-60.01-56.64-4.07-3.84-8.17-7.65-12.22-11.51-1.14-1.09-2.49-2.02-3.2-3.5,.62-1.15,1.81-1.23,2.83-1.6Zm-40.7,138.31c0-38.21,0-76.42,0-114.63q0-5.82,5.4-8.02c.59-.24,1.22-.4,1.79-.69,2.13-1.08,3.69-.58,5.47,1.12,17.61,16.75,35.31,33.4,52.99,50.07,15.82,14.92,31.65,29.82,47.46,44.75,1.49,1.41,3.49,2.54,4.11,4.57,.58,1.9-.74,3.7-1.27,5.51-7.98,27.08,3.24,56.07,26.75,71.13,5.01,3.21,10.37,5.66,16.06,7.39,.92,.28,1.86,.48,2.76,.79,.97,.33,1.63,.92,1.61,2.08-.03,1.28,.03,2.56,.03,3.84,0,21.9,0,43.81,0,65.71s0,43.17,0,64.75c0,1.28-.02,2.56,0,3.84,.02,1.29-.51,2.02-1.83,2.38-3.39,.91-6.75,1.97-9.95,3.46-1.03,.48-1.84,.18-2.59-.55-.8-.78-1.6-1.57-2.39-2.36-34.03-34.03-68.06-68.06-102.09-102.09-.45-.45-.92-.89-1.36-1.36-1.93-2.03-1.98-2.06-.71-4.51,2.81-5.42,5-11.07,6.12-17.08,3.96-21.22-1.21-39.91-15.71-55.91-8.04-8.87-17.99-14.78-29.48-18.01-3.05-.86-3.19-1.03-3.17-4.25,0-.64,0-1.28,0-1.92Zm-13.47,31.52c18.25-.45,35.84,15.22,35.58,36.24-.25,20.57-17.53,35.49-36,35.47-18.14-.02-35.98-14.82-35.81-36.11,.16-21.73,18.54-36.36,36.23-35.59Zm-14.86-132.66c.97,.42,.68,1.33,.68,2.05,.04,5.92,.03,11.83,.03,17.75,0,26.87,0,53.73-.01,80.6,0,1.69,.26,3.43-.27,5.09-1.66,.12-2.62-.85-3.67-1.48-28.53-17.06-56.99-34.87-60.09-37.58,8.48-16.9,47.27-57.6,63.34-66.44Zm-124.16,225.2c4.38-24.58,10.29-48.77,18.27-72.44,6.6-19.57,14.54-38.59,24.28-56.82,3.79-7.09,2.47-6.27,8.75-2.44,13.51,8.24,26.97,16.57,40.44,24.88,1.34,.82,2.62,1.74,4.35,2.9-1.66,1.73-2.9,2.97-4.08,4.27-9.57,10.51-15.04,22.8-16.47,36.99-.59,5.81-.27,11.51,.75,17.17,.39,2.16-.23,3.22-1.89,4.31-9.6,6.36-19.15,12.79-28.71,19.2-14.21,9.53-28.41,19.07-42.61,28.6-1.3,.87-2.64,1.68-4.19,2.65-.34-3.45,.59-6.35,1.11-9.28Zm-9.4,77.85c.89-9.71,1.78-19.41,2.55-29.13,.14-1.81,.93-2.91,2.36-3.86,5.6-3.71,11.14-7.49,16.72-11.23,24.04-16.12,48.09-32.23,72.14-48.34,1.32-.88,2.66-1.72,3.91-2.52,1.8,.67,2.56,2.17,3.62,3.32,8.96,9.65,19.8,16.13,32.66,19.01,15.95,3.57,31.12,1.31,45.44-6.62,1.51-.83,2.83-2.51,4.62-2.22,1.75,.29,2.71,2.13,3.93,3.36,32.7,32.67,65.39,65.37,98.07,98.06,.34,.34,.68,.68,1.02,1.02,3.39,3.37,2.88,2.75,.43,6.16-8.83,12.27-13.08,26.01-12.01,41.05,1.5,20.91,11.13,37.39,28.52,49.21,5.46,3.71,11.45,6.34,17.8,8.16,2.14,.61,2.37,.9,2.27,3-.14,3.19-.47,6.37-.68,9.56-.94,14.35-1.88,28.71-2.8,43.07-.39,6.06-.71,12.13-1.11,18.19-.89,13.72-1.82,27.43-2.7,41.15-.2,3.03-.25,6.07-.42,9.11-.14,2.4-.17,2.42-2.81,2.91-4.08,.76-8.2,1.34-12.15,2.73-1.51,.53-3.02,1.05-4.51,1.64-1.13,.44-2.19,.36-3.23-.21-1.26-.69-2.52-1.39-3.78-2.09-20.08-11.26-40.16-22.52-60.25-33.78-14.09-7.89-28.19-15.76-42.26-23.68-1.36-.77-2.93-1.3-3.9-2.69,.52-1.35,1.82-1.76,2.79-2.51,13.15-10.07,21.51-23.25,24.3-39.5,3.61-21.04-2.08-39.59-16.79-55.18-8.81-9.33-19.58-15.28-32.13-18.02-15.86-3.46-30.81-.99-44.92,6.86-4.39,2.44-3.22,2.68-7.41-.49-35.33-26.73-70.64-53.48-105.96-80.23-.51-.39-.98-.84-1.52-1.17-1.56-.96-1.99-2.34-1.82-4.09Zm356.82,315.6c-.04,20.71-17.57,36.36-36.12,35.7-17.81,.49-35.89-14.47-35.72-36.09,.17-20.66,17.45-35.74,36.35-35.57,18.27,.16,35.53,15.43,35.49,35.97Zm-208.93-138.57c-20.71-.11-35.68-16.95-35.7-35.77-.03-20.77,16.98-36.18,35.9-36.03,20.66-.09,36,17.07,35.96,35.98-.04,18.26-14.65,35.93-36.16,35.82Zm-36.57,214.63c-6.61-5.56-13.22-11.11-19.83-16.67-7.1-5.97-14.15-11.99-21.31-17.89-2.38-1.96-4.35-4.16-6-6.77-12.88-20.34-23.21-41.94-31.62-64.46-9.36-25.05-16.19-50.82-21.33-77.05-3.07-15.69-5.44-31.48-7.38-47.33-.95-7.77-1.56-15.58-2.28-23.37-1.97-21.02-2.7-42.1-3.15-63.2-.26-12-.18-23.98,.21-35.96,.02-.59-.06-1.29,.62-1.57,.41,.06,.77,.01,1,.16,.8,.52,1.58,1.09,2.34,1.66,29.31,22.21,58.61,44.44,87.94,66.62,3.88,2.94,3.15,2.55,1.28,6.05-4.92,9.23-7.41,19.15-7.17,29.52,.49,21.3,9.3,38.53,26.54,51.27,5.71,4.22,12.04,7.23,18.83,9.29,.76,.23,1.56,.35,2.32,.6,1.59,.53,1.87,.94,1.95,2.83,.03,.8,.01,1.6,.01,2.4,0,57.41,0,114.82-.01,172.23,0,4.74,.65,4.32-4.37,5.77-4.93,1.43-9.6,3.52-14.01,6.16-2.04,1.22-2.11,1.79-4.57-.29Zm72.46,59.63c-.14,1.15-.98,1.68-2.03,1.25-1.92-.79-3.82-1.61-5.7-2.5-16.65-7.87-32.37-17.28-47.02-28.45-1.12-.85-2.52-1.45-3.09-3.1,4.28-3.75,9.38-5.83,14.9-7.06,18.74-4.17,39.76,8.19,42.96,30.77,.43,3,.33,6.06-.03,9.08Zm6.54-57.26c-.39,.27-.8,.54-1.17,.84-1.41,1.17-2.72,1.28-4.25,.06-2.64-2.09-5.6-3.69-8.61-5.19-3.87-1.94-7.92-3.39-12.09-4.56-2.1-.59-2.21-.85-2.28-3.03-.04-1.12-.01-2.24-.01-3.36,0-52.77,0-105.54,0-158.31,0-1.72,.07-3.44,.11-5.12,.59-.06,.97-.22,1.18-.1,35.88,19.99,71.74,40,107.46,59.92,.39,1.81-.81,2.62-1.49,3.59-5.13,7.29-8.63,15.27-10.41,24.01-2.49,12.23-1.44,24.15,3.04,35.78,2.16,5.61,2.82,4.26-2.36,7.83-23.02,15.9-46.07,31.76-69.11,47.63Zm230.01,67.63c-2.63,2.81-4.92,5.9-6.83,9.24-1.06,1.86-2.5,2.62-4.53,3.04-12.84,2.66-25.76,4.66-38.82,5.86-12.43,1.14-24.86,1.77-38.91,1.66-9.15,.31-19.85-.36-30.52-1.1-28.93-2-57.43-6.57-85.19-15.18-5.99-1.86-6.19-.77-4.89-7.64,2.34-12.42,.74-24.49-4.27-36.1-1.58-3.65-2.24-3.48,1.59-6.12,23.3-16.04,46.6-32.1,69.9-48.14,3.3-2.27,2.85-2.43,6.18-.07,8.22,5.82,17.26,9.62,27.26,11.12,7.99,1.2,15.92,.98,23.8-.87,1.24-.29,2.49-.58,3.71-.97,1.04-.33,1.87-.08,2.62,.65,.57,.56,1.14,1.12,1.71,1.68,25.65,25.45,51.31,50.89,76.95,76.34,3.79,3.76,3.61,3.02,.25,6.6Zm138.37-75.25c-8.12,9.06-16.66,17.7-25.8,25.73-12.77,11.2-26.48,21.12-41.06,29.86-2.63,1.58-4.87,1.67-7.62,.84-6-1.82-12.2-2.6-18.46-2.34-5.11,.21-10.2,.84-15.11,2.38-2.09,.66-3.57,.22-5.12-1.36-5.15-5.25-10.46-10.34-15.68-15.52-20.43-20.28-40.85-40.57-61.25-60.87-1.12-1.11-2.81-2-3.01-3.59-.22-1.73,1.67-2.55,2.67-3.72,3.45-4.03,6.47-8.32,8.94-13.02,1.22-2.32,.92-3.1,4.89-2.2,6.86,1.54,13.71,3.12,20.56,4.68,33.65,7.64,67.3,15.26,100.94,22.9,18.07,4.1,36.14,8.22,54.2,12.35,.77,.18,1.54,.4,2.27,.7,.18,.07,.19,.56,.34,1.09-.5,.63-1.06,1.39-1.68,2.09Zm46.52-69.96c-6.94,13.88-14.57,27.36-23.28,40.22-1.44,2.12-3.05,2.43-5.28,1.91-5.75-1.35-11.52-2.63-17.28-3.94-33.48-7.6-66.96-15.21-100.45-22.8-23.21-5.26-46.42-10.5-69.63-15.75-.78-.18-1.55-.38-2.32-.58-2.25-.58-2.27-.58-2.55-2.78-.56-4.43-.87-8.9-2.09-13.24-5.27-18.76-16.63-32.48-34.04-41.18-5.07-2.53-5.09-2.48-4.43-8.28,.11-.95,.22-1.91,.27-2.86,.78-13.08,1.52-26.16,2.33-39.24,.94-15.15,1.93-30.29,2.9-45.44,.62-9.73,1.25-19.45,1.88-29.18,.04-.64,.02-1.29,.14-1.91,.97-5.41-.6-4.58,5.32-6.26,6.97-1.98,13.44-5.13,19.23-9.51,1.71-1.29,2.9-1.19,4.64-.04,20.53,13.57,41.13,27.05,61.7,40.56,18.3,12.02,36.6,24.04,54.91,36.05,.53,.35,1.07,.7,1.6,1.05,3.15,2.08,3.45,1.83,2.09,6.12-9.63,30.24,4.42,62.44,32.81,76.32,8.75,4.28,18.02,6.44,28.39,6.28,5.21,.21,10.86-.8,16.45-2.25,.93-.24,1.84-.55,2.76-.8,1.25-.35,2.18,.12,2.87,1.15,.27,.4,.53,.8,.8,1.2,6.64,9.98,13.22,20,19.96,29.91,1.26,1.86,1.27,3.35,.31,5.26Zm-79.81-98.34c.25-18.96,16.62-35.71,36.54-35.41,18.41,.28,35.8,16.05,35.17,36.17,.41,19.15-16.28,35.81-36.17,35.64-19.38-.16-35.79-16.88-35.53-36.4Zm59.08-64.21c-.42,1.53-.4,3.51-1.68,4.35-1.35,.89-2.98-.43-4.48-.81-21.3-5.43-40.53-1.23-57.68,12.46-3.69,2.95-2.49,3.17-6.78,.36-37.96-24.91-75.9-49.85-113.84-74.79-5.11-3.36-4.39-2.46-2.27-7.83,11.14-28.23,1.03-60.92-25.79-77.47-5.21-3.21-10.8-5.52-16.65-7.25-2.54-.75-2.53-.81-2.62-3.22-.04-.96-.01-1.92-.01-2.88,0-43.5,0-87,.02-130.5,0-1.88-.67-4,.58-5.59,1.12-1.43,3.22-1.23,4.86-1.82,24.62-8.84,39.08-26.19,43.61-51.9,3.9-33.41-16.23-60.11-43.75-69.05-6-1.95-5.29-.41-5.3-6.99-.03-27.83-.01-55.65-.01-83.48,0-1.28-.03-2.56,.04-3.84,.09-1.77,.49-2.09,2.42-2.11,1.28-.01,2.56,0,3.83,0,10.99,1.04,21.94,2.3,32.81,4.16,16.88,2.88,33.49,6.88,49.71,12.41,10.45,3.56,20.7,7.59,30.63,12.43,.72,.35,1.43,.71,2.16,1.04,1.18,.54,1.65,1.38,1.37,2.69-.37,1.72-.69,3.44-.98,5.17-4.57,27.46,9.91,53.98,33.29,66.16,4.68,2.44,4.78,2.44,4.35,7.51-.8,9.39-1.74,18.77-2.62,28.16-.36,3.82-.71,7.64-1.05,11.46-1.09,12.42-2.12,24.84-3.25,37.25-1.09,11.93-2.31,23.85-3.42,35.78-.79,8.43-1.47,16.87-2.23,25.31-.25,2.86-.54,5.73-.86,8.58-.16,1.43-.58,1.88-2.2,1.94-4.34,.16-8.57,.96-12.74,2.09-23.85,6.46-41.93,27.16-45.77,51.58-5.12,32.51,16.33,65.83,51.34,71.92,26.14,4.55,47.41-4.72,63.35-25.97,2.5-3.33,4.59-6.95,6.13-10.82,.86-2.16,1.62-2.4,3.63-2.06,6.14,1.06,12.27,2.15,18.4,3.23,13.53,2.39,27.05,4.77,40.58,7.16,.31,.06,.64,.07,.95,.12,4.54,.77,4.18,1.08,3.14,4.85-6.46,23.41-12.86,46.84-19.28,70.26-7.31,26.65-14.63,53.31-21.94,79.96Zm52.93,67.81c-4.27,19.51-9.77,38.67-16.57,57.45-.38,1.04-.81,2.06-1.52,3.85-1.44-2.08-2.44-3.5-3.41-4.94-2.84-4.24-5.69-8.49-8.5-12.75-1.12-1.71-1.09-1.85,.16-3.3,1.04-1.21,2.15-2.36,3.15-3.61,8.7-10.97,13.51-23.41,13.98-37.46,.02-.64,.04-1.28,.05-1.92,.02-1.3,.68-2.05,1.94-2.35,1.55-.37,3.07-.9,4.64-1.18,2.42-.44,4.65-2.08,7.29-1.21,.32,2.59-.66,4.98-1.2,7.43Zm14.69-112.71c-.66,13.87-1.75,27.72-3.25,41.54-1,9.21-2.04,18.42-3.45,27.56-.97,6.33,.34,4.85-5.69,6.61-5.52,1.61-11.11,2.97-16.67,4.43-1.08,.28-2.17,.55-3.26,.79-1.07,.24-1.86-.21-2.4-1.13-.24-.41-.47-.83-.72-1.24-2.27-3.86-4.75-7.59-7.79-10.9-1.25-1.36-1.35-2.58-.86-4.32,3.33-11.83,6.52-23.71,9.77-35.57,10.51-38.34,21.03-76.69,31.56-115.03,.38-1.38,.85-2.74,1.34-4.08,.06-.17,.55-.31,.79-.25,.25,.06,.6,.34,.63,.58,.16,.94,.27,1.89,.3,2.84,.55,14.69,1.16,29.38,.82,43.97,.33,14.83-.44,29.52-1.14,44.2Z"/></svg>